# xmcd
#
# Track frame offsets:
#	150
#	17120
#	33525
#	49467
#	62835
#	76997
#	89780
#	101450
#	119267
#	132450
#	148150
#	161415
#
# Disc length: 2360 seconds
#
# Revision: 1
# Processed by: cddbd v1.5PL3 Copyright (c) Steve Scherf et al.
# Submitted via: EasyCDDAExtractor 6.2.0.3
#
DISCID=ac09360c
DTITLE=Vieira e Vieirinha - Peão Boiadeiro
DYEAR=1900
DGENRE=Moda de Viola
TTITLE0=Terra de Goiás
TTITLE1=Marreta
TTITLE2=Resposta da Marreta
TTITLE3=A Grande Verdade
TTITLE4=Cravo na Cinta
TTITLE5=Filha do Fazendeiro
TTITLE6=Virgem Aparecida
TTITLE7=Cuiabá
TTITLE8=Negra Sorte
TTITLE9=Festa de Reis
TTITLE10=Peão de Boiadero
TTITLE11=Tia Geralda
EXTD=
EXTT0=
EXTT1=
EXTT2=
EXTT3=
EXTT4=
EXTT5=
EXTT6=
EXTT7=
EXTT8=
EXTT9=
EXTT10=
EXTT11=
PLAYORDER=
